<svg width="275" height="26" viewBox="0 0 275 26" fill="none" xmlns="http://www.w3.org/2000/svg">
<path d="M3.595 12.8C3.595 11.0507 3.979 9.52533 4.747 8.224C5.53633 6.90133 6.56033 5.86667 7.819 5.12C9.07766 4.37333 10.443 4 11.915 4C12.9817 4 13.9523 4.13867 14.827 4.416C15.723 4.69333 16.5337 5.088 17.259 5.6C17.9843 6.09067 18.603 6.66667 19.115 7.328V3.744C18.1763 2.912 17.1523 2.29333 16.043 1.888C14.9337 1.48267 13.5577 1.28 11.915 1.28C10.3577 1.28 8.89633 1.568 7.531 2.144C6.187 2.69867 5.003 3.49867 3.979 4.544C2.955 5.568 2.155 6.784 1.579 8.192C1.003 9.6 0.714998 11.136 0.714998 12.8C0.714998 14.464 1.003 16 1.579 17.408C2.155 18.816 2.955 20.0427 3.979 21.088C5.003 22.112 6.187 22.912 7.531 23.488C8.89633 24.0427 10.3577 24.32 11.915 24.32C13.5577 24.32 14.9337 24.1173 16.043 23.712C17.1523 23.3067 18.1763 22.688 19.115 21.856V18.272C18.603 18.9333 17.9843 19.52 17.259 20.032C16.5337 20.5227 15.723 20.9067 14.827 21.184C13.9523 21.4613 12.9817 21.6 11.915 21.6C10.443 21.6 9.07766 21.2267 7.819 20.48C6.56033 19.7333 5.53633 18.6987 4.747 17.376C3.979 16.0533 3.595 14.528 3.595 12.8ZM45.9812 12.8C45.9812 11.1147 46.3439 9.61067 47.0692 8.288C47.8159 6.96533 48.8292 5.92 50.1092 5.152C51.3892 4.384 52.8399 4 54.4612 4C56.1039 4 57.5546 4.384 58.8132 5.152C60.0932 5.92 61.0959 6.96533 61.8212 8.288C62.5679 9.61067 62.9412 11.1147 62.9412 12.8C62.9412 14.4853 62.5679 15.9893 61.8212 17.312C61.0959 18.6347 60.0932 19.68 58.8132 20.448C57.5546 21.216 56.1039 21.6 54.4612 21.6C52.8399 21.6 51.3892 21.216 50.1092 20.448C48.8292 19.68 47.8159 18.6347 47.0692 17.312C46.3439 15.9893 45.9812 14.4853 45.9812 12.8ZM43.1012 12.8C43.1012 14.4213 43.3786 15.936 43.9332 17.344C44.5092 18.752 45.3092 19.9787 46.3332 21.024C47.3572 22.048 48.5626 22.8587 49.9492 23.456C51.3359 24.032 52.8399 24.32 54.4612 24.32C56.1039 24.32 57.6079 24.032 58.9732 23.456C60.3599 22.8587 61.5652 22.048 62.5892 21.024C63.6132 19.9787 64.4026 18.752 64.9572 17.344C65.5332 15.936 65.8212 14.4213 65.8212 12.8C65.8212 11.1573 65.5332 9.64267 64.9572 8.256C64.4026 6.848 63.6132 5.632 62.5892 4.608C61.5652 3.56267 60.3599 2.752 58.9732 2.176C57.6079 1.57867 56.1039 1.28 54.4612 1.28C52.8399 1.28 51.3359 1.57867 49.9492 2.176C48.5626 2.752 47.3572 3.56267 46.3332 4.608C45.3092 5.632 44.5092 6.848 43.9332 8.256C43.3786 9.64267 43.1012 11.1573 43.1012 12.8ZM93.2465 8.864L100.542 21.92L107.838 8.864L109.502 24H112.222L109.502 0.48L100.542 16.704L91.5825 0.48L88.8625 24H91.5825L93.2465 8.864ZM136.529 1.6V24H139.249V1.6H136.529ZM138.033 4.16H142.609C144.059 4.16 145.233 4.512 146.129 5.216C147.046 5.89867 147.505 6.93333 147.505 8.32C147.505 9.68533 147.046 10.72 146.129 11.424C145.233 12.128 144.059 12.48 142.609 12.48H138.033V15.04H142.609C144.059 15.04 145.35 14.7733 146.481 14.24C147.633 13.6853 148.539 12.9067 149.201 11.904C149.883 10.88 150.225 9.68533 150.225 8.32C150.225 6.93333 149.883 5.73867 149.201 4.736C148.539 3.73333 147.633 2.96533 146.481 2.432C145.35 1.87733 144.059 1.6 142.609 1.6H138.033V4.16ZM174.434 17.28H186.274L185.314 14.72H175.394L174.434 17.28ZM180.29 6.656L184.13 15.68L184.386 16.32L187.65 24H190.69L180.29 0.48L169.89 24H172.93L176.258 16.128L176.514 15.552L180.29 6.656ZM230.855 1.6V18.272L213.895 0.48V24H216.615V7.328L233.575 25.12V1.6H230.855ZM271.38 1.6L265.588 11.968L259.828 1.6H256.788L264.244 14.368V24H266.964V14.336L274.42 1.6H271.38Z" fill="black"/>
</svg>
